<svg width="45" height="45" viewBox="0 0 45 45" fill="none" xmlns="http://www.w3.org/2000/svg">
<path d="M36.8344 39.7266H35.4281C33.8748 39.7266 32.6156 38.4674 32.6156 36.9141C32.6156 35.3608 33.8748 34.1016 35.4281 34.1016H36.8344C38.3876 34.1016 39.6469 35.3608 39.6469 36.9141C39.6469 38.4674 38.3876 39.7266 36.8344 39.7266Z" fill="#CD3232"/>
<path d="M38.2406 34.1016H14.3344C13.946 34.1016 13.6312 33.7867 13.6312 33.3984C13.6312 29.5214 16.7854 26.3672 20.6625 26.3672H25.5843C25.9726 26.3672 26.2875 26.682 26.2875 27.0703C26.2875 27.4586 25.9726 27.7734 25.5843 27.7734H20.6625C17.799 27.7734 15.4283 29.9244 15.0812 32.6953H38.2406C38.6289 32.6953 38.9437 33.0101 38.9437 33.3984C38.9437 33.7867 38.629 34.1016 38.2406 34.1016Z" fill="#32283C"/>
<path d="M38.2406 34.1016H5.89685C5.50855 34.1016 5.19373 33.7867 5.19373 33.3984C5.19373 29.5214 8.34794 26.3672 12.225 26.3672H17.1469C17.5352 26.3672 17.85 26.682 17.85 27.0703C17.85 27.4586 17.5352 27.7734 17.1469 27.7734H12.225C9.3615 27.7734 6.99083 29.9244 6.64375 32.6953H38.2406C38.6289 32.6953 38.9437 33.0101 38.9437 33.3984C38.9437 33.7867 38.629 34.1016 38.2406 34.1016Z" fill="#463C4B"/>
<path d="M16.8004 7.86357L17.812 10.8984H19.2943L18.1345 7.41885C17.8468 6.5562 17.0426 5.97656 16.1333 5.97656H12.9281V7.38281H16.1333C16.4364 7.38281 16.7045 7.576 16.8004 7.86357Z" fill="#32283C"/>
<path d="M15.0375 8.08594H12.9281C12.1514 8.08594 11.5219 7.45638 11.5219 6.67969C11.5219 5.903 12.1514 5.27344 12.9281 5.27344H15.0375C15.8142 5.27344 16.4437 5.903 16.4437 6.67969C16.4437 7.45638 15.8142 8.08594 15.0375 8.08594Z" fill="#32283C"/>
<path d="M9.45871 10.923L8.29073 7.41885C8.00306 6.5562 7.19886 5.97656 6.28955 5.97656H3.08435V7.38281H6.28955C6.59268 7.38281 6.86075 7.576 6.95664 7.86357L8.34408 12.026C8.45508 11.4815 8.88619 11.0305 9.45871 10.923Z" fill="#463C4B"/>
<path d="M16.3577 12.7494L20.7247 25.8504C21.1074 26.9988 22.1822 27.7734 23.3929 27.7734H36.2135C37.4242 27.7734 38.4989 26.9988 38.8817 25.8503L43.2488 12.7493C43.5522 11.8387 42.8745 10.8983 41.9147 10.8983H17.6917C16.7319 10.8984 16.0542 11.8388 16.3577 12.7494Z" fill="#CD3232"/>
<path d="M8.38878 12.7494L12.7558 25.8504C13.1387 26.9988 14.2134 27.7734 15.424 27.7734H28.2447C29.4553 27.7734 30.53 26.9988 30.9129 25.8503L35.2799 12.7493C35.5834 11.8387 34.9056 10.8983 33.9458 10.8983H9.72287C8.76302 10.8984 8.08529 11.8388 8.38878 12.7494Z" fill="#FF4646"/>
<path d="M28.1625 17.9297H26.7562C26.3679 17.9297 26.0531 17.6149 26.0531 17.2266V14.4141C26.0531 14.0258 26.3679 13.7109 26.7562 13.7109H28.1625C28.5508 13.7109 28.8656 14.0258 28.8656 14.4141V17.2266C28.8656 17.6149 28.5508 17.9297 28.1625 17.9297Z" fill="#E6E6EB"/>
<path d="M22.5375 17.9297H21.1312C20.7429 17.9297 20.4281 17.6149 20.4281 17.2266V14.4141C20.4281 14.0258 20.7429 13.7109 21.1312 13.7109H22.5375C22.9258 13.7109 23.2406 14.0258 23.2406 14.4141V17.2266C23.2406 17.6149 22.9258 17.9297 22.5375 17.9297Z" fill="#E6E6EB"/>
<path d="M16.9125 17.9297H15.5062C15.1179 17.9297 14.8031 17.6149 14.8031 17.2266V14.4141C14.8031 14.0258 15.1179 13.7109 15.5062 13.7109H16.9125C17.3008 13.7109 17.6156 14.0258 17.6156 14.4141V17.2266C17.6156 17.6149 17.3008 17.9297 16.9125 17.9297Z" fill="#E6E6EB"/>
<path d="M28.1625 24.9609H26.7562C26.3679 24.9609 26.0531 24.6461 26.0531 24.2578V21.4453C26.0531 21.057 26.3679 20.7422 26.7562 20.7422H28.1625C28.5508 20.7422 28.8656 21.057 28.8656 21.4453V24.2578C28.8656 24.6461 28.5508 24.9609 28.1625 24.9609Z" fill="#E6E6EB"/>
<path d="M22.5375 24.9609H21.1312C20.7429 24.9609 20.4281 24.6461 20.4281 24.2578V21.4453C20.4281 21.057 20.7429 20.7422 21.1312 20.7422H22.5375C22.9258 20.7422 23.2406 21.057 23.2406 21.4453V24.2578C23.2406 24.6461 22.9258 24.9609 22.5375 24.9609Z" fill="#E6E6EB"/>
<path d="M16.9125 24.9609H15.5062C15.1179 24.9609 14.8031 24.6461 14.8031 24.2578V21.4453C14.8031 21.057 15.1179 20.7422 15.5062 20.7422H16.9125C17.3008 20.7422 17.6156 21.057 17.6156 21.4453V24.2578C17.6156 24.6461 17.3008 24.9609 16.9125 24.9609Z" fill="#E6E6EB"/>
<path d="M5.19373 8.08594H3.08435C2.30766 8.08594 1.6781 7.45638 1.6781 6.67969C1.6781 5.903 2.30766 5.27344 3.08435 5.27344H5.19373C5.97042 5.27344 6.59998 5.903 6.59998 6.67969C6.59998 7.45638 5.97042 8.08594 5.19373 8.08594Z" fill="#FF4646"/>
<path d="M35.4281 39.7266C36.9814 39.7266 38.2406 38.4674 38.2406 36.9141C38.2406 35.3608 36.9814 34.1016 35.4281 34.1016C33.8748 34.1016 32.6156 35.3608 32.6156 36.9141C32.6156 38.4674 33.8748 39.7266 35.4281 39.7266Z" fill="#FF4646"/>
<path d="M35.4281 38.3203C36.2048 38.3203 36.8344 37.6907 36.8344 36.9141C36.8344 36.1374 36.2048 35.5078 35.4281 35.5078C34.6515 35.5078 34.0219 36.1374 34.0219 36.9141C34.0219 37.6907 34.6515 38.3203 35.4281 38.3203Z" fill="#E6E6EB"/>
<path d="M9.41248 39.7266H8.00623C6.45293 39.7266 5.19373 38.4674 5.19373 36.9141C5.19373 35.3608 6.45293 34.1016 8.00623 34.1016H9.41248C10.9658 34.1016 12.225 35.3608 12.225 36.9141C12.225 38.4674 10.9658 39.7266 9.41248 39.7266Z" fill="#CD3232"/>
<path d="M8.00623 39.7266C9.55953 39.7266 10.8187 38.4674 10.8187 36.9141C10.8187 35.3608 9.55953 34.1016 8.00623 34.1016C6.45292 34.1016 5.19373 35.3608 5.19373 36.9141C5.19373 38.4674 6.45292 39.7266 8.00623 39.7266Z" fill="#FF4646"/>
<path d="M8.00623 38.3203C8.78288 38.3203 9.41248 37.6907 9.41248 36.9141C9.41248 36.1374 8.78288 35.5078 8.00623 35.5078C7.22958 35.5078 6.59998 36.1374 6.59998 36.9141C6.59998 37.6907 7.22958 38.3203 8.00623 38.3203Z" fill="#E6E6EB"/>
</svg>
