<svg width="24" height="24" viewBox="0 0 24 24" fill="none" xmlns="http://www.w3.org/2000/svg">
<path d="M3 6H5H21" stroke="#824ED6" stroke-width="2" stroke-linecap="round" stroke-linejoin="round"/>
<path d="M19 7V21C19 21.5304 18.7893 22.0391 18.4142 22.4142C18.0391 22.7893 17.5304 23 17 23H7C6.46957 23 5.96086 22.7893 5.58579 22.4142C5.21071 22.0391 5 21.5304 5 21V7M8 7V5C8 4.46957 8.21071 3.96086 8.58579 3.58579C8.96086 3.21071 9.46957 3 10 3H14C14.5304 3 15.0391 3.21071 15.4142 3.58579C15.7893 3.96086 16 4.46957 16 5V7" stroke="#824ED6" stroke-width="2" stroke-linecap="round" stroke-linejoin="round"/>
<path d="M10 11V17" stroke="#824ED6" stroke-width="2" stroke-linecap="round" stroke-linejoin="round"/>
<path d="M14 11V17" stroke="#824ED6" stroke-width="2" stroke-linecap="round" stroke-linejoin="round"/>
</svg>
